<mxfile host="app.diagrams.net" modified="2024-04-26T15:16:44.961Z" agent="Mozilla/5.0 (Windows NT 10.0; Win64; x64) AppleWebKit/537.36 (KHTML, like Gecko) Chrome/124.0.0.0 Safari/537.36" etag="HCGcZ95nerSk8whpmed0" version="24.3.0" type="github">
  <diagram name="Page-1" id="rhyH5-ZiRPN7Cf6g0yFa">
    <mxGraphModel dx="1509" dy="777" grid="1" gridSize="10" guides="1" tooltips="1" connect="1" arrows="1" fold="1" page="1" pageScale="1" pageWidth="850" pageHeight="1100" math="0" shadow="0">
      <root>
        <mxCell id="0" />
        <mxCell id="1" parent="0" />
        <mxCell id="pPr2H10A3WoljT3qs_36-5" value="" style="edgeStyle=orthogonalEdgeStyle;rounded=0;orthogonalLoop=1;jettySize=auto;html=1;" parent="1" source="pPr2H10A3WoljT3qs_36-1" target="pPr2H10A3WoljT3qs_36-4" edge="1">
          <mxGeometry relative="1" as="geometry" />
        </mxCell>
        <mxCell id="pPr2H10A3WoljT3qs_36-1" value="Start" style="ellipse;whiteSpace=wrap;html=1;" parent="1" vertex="1">
          <mxGeometry x="300" y="47" width="120" height="80" as="geometry" />
        </mxCell>
        <mxCell id="pPr2H10A3WoljT3qs_36-7" value="" style="edgeStyle=orthogonalEdgeStyle;rounded=0;orthogonalLoop=1;jettySize=auto;html=1;" parent="1" source="pPr2H10A3WoljT3qs_36-4" target="pPr2H10A3WoljT3qs_36-6" edge="1">
          <mxGeometry relative="1" as="geometry" />
        </mxCell>
        <mxCell id="kPgAx1ZnFO4lZo-58N2I-4" value="No" style="edgeLabel;html=1;align=center;verticalAlign=middle;resizable=0;points=[];" vertex="1" connectable="0" parent="pPr2H10A3WoljT3qs_36-7">
          <mxGeometry x="-0.0011" y="-1" relative="1" as="geometry">
            <mxPoint as="offset" />
          </mxGeometry>
        </mxCell>
        <mxCell id="pPr2H10A3WoljT3qs_36-9" value="" style="edgeStyle=orthogonalEdgeStyle;rounded=0;orthogonalLoop=1;jettySize=auto;html=1;" parent="1" source="pPr2H10A3WoljT3qs_36-4" edge="1">
          <mxGeometry relative="1" as="geometry">
            <mxPoint x="360" y="277" as="targetPoint" />
          </mxGeometry>
        </mxCell>
        <mxCell id="kPgAx1ZnFO4lZo-58N2I-2" value="Yes" style="edgeLabel;html=1;align=center;verticalAlign=middle;resizable=0;points=[];" vertex="1" connectable="0" parent="pPr2H10A3WoljT3qs_36-9">
          <mxGeometry x="-0.1098" y="-1" relative="1" as="geometry">
            <mxPoint as="offset" />
          </mxGeometry>
        </mxCell>
        <mxCell id="pPr2H10A3WoljT3qs_36-4" value="Have an &lt;br&gt;Account?" style="shape=step;perimeter=stepPerimeter;whiteSpace=wrap;html=1;fixedSize=1;" parent="1" vertex="1">
          <mxGeometry x="300" y="157" width="120" height="80" as="geometry" />
        </mxCell>
        <mxCell id="pPr2H10A3WoljT3qs_36-12" value="" style="edgeStyle=orthogonalEdgeStyle;rounded=0;orthogonalLoop=1;jettySize=auto;html=1;entryX=1;entryY=0.5;entryDx=0;entryDy=0;exitX=0.5;exitY=1;exitDx=0;exitDy=0;" parent="1" source="pPr2H10A3WoljT3qs_36-6" edge="1">
          <mxGeometry relative="1" as="geometry">
            <mxPoint x="560" y="237" as="sourcePoint" />
            <mxPoint x="420" y="317" as="targetPoint" />
            <Array as="points">
              <mxPoint x="560" y="317" />
            </Array>
          </mxGeometry>
        </mxCell>
        <mxCell id="pPr2H10A3WoljT3qs_36-6" value="Sign Up" style="whiteSpace=wrap;html=1;" parent="1" vertex="1">
          <mxGeometry x="500" y="167" width="120" height="60" as="geometry" />
        </mxCell>
        <mxCell id="pPr2H10A3WoljT3qs_36-14" value="" style="edgeStyle=orthogonalEdgeStyle;rounded=0;orthogonalLoop=1;jettySize=auto;html=1;" parent="1" source="pPr2H10A3WoljT3qs_36-8" edge="1">
          <mxGeometry relative="1" as="geometry">
            <mxPoint x="360" y="367" as="targetPoint" />
          </mxGeometry>
        </mxCell>
        <mxCell id="pPr2H10A3WoljT3qs_36-8" value="Log In" style="whiteSpace=wrap;html=1;" parent="1" vertex="1">
          <mxGeometry x="300" y="277" width="120" height="60" as="geometry" />
        </mxCell>
        <mxCell id="pPr2H10A3WoljT3qs_36-16" value="" style="edgeStyle=orthogonalEdgeStyle;rounded=0;orthogonalLoop=1;jettySize=auto;html=1;" parent="1" source="pPr2H10A3WoljT3qs_36-13" edge="1">
          <mxGeometry relative="1" as="geometry">
            <mxPoint x="360" y="477" as="targetPoint" />
          </mxGeometry>
        </mxCell>
        <mxCell id="pPr2H10A3WoljT3qs_36-18" value="" style="edgeStyle=orthogonalEdgeStyle;rounded=0;orthogonalLoop=1;jettySize=auto;html=1;" parent="1" source="pPr2H10A3WoljT3qs_36-13" target="pPr2H10A3WoljT3qs_36-17" edge="1">
          <mxGeometry relative="1" as="geometry" />
        </mxCell>
        <mxCell id="pPr2H10A3WoljT3qs_36-13" value="Dashboard" style="whiteSpace=wrap;html=1;" parent="1" vertex="1">
          <mxGeometry x="280" y="367" width="160" height="60" as="geometry" />
        </mxCell>
        <mxCell id="pPr2H10A3WoljT3qs_36-20" value="" style="edgeStyle=orthogonalEdgeStyle;rounded=0;orthogonalLoop=1;jettySize=auto;html=1;entryX=0;entryY=0.5;entryDx=0;entryDy=0;exitX=0.5;exitY=1;exitDx=0;exitDy=0;" parent="1" source="kPgAx1ZnFO4lZo-58N2I-8" edge="1" target="pPr2H10A3WoljT3qs_36-44">
          <mxGeometry relative="1" as="geometry">
            <mxPoint x="280" y="1117" as="targetPoint" />
            <mxPoint x="180" y="640" as="sourcePoint" />
            <Array as="points">
              <mxPoint x="180" y="1000" />
            </Array>
          </mxGeometry>
        </mxCell>
        <mxCell id="kPgAx1ZnFO4lZo-58N2I-11" style="edgeStyle=orthogonalEdgeStyle;rounded=0;orthogonalLoop=1;jettySize=auto;html=1;" edge="1" parent="1" source="pPr2H10A3WoljT3qs_36-15">
          <mxGeometry relative="1" as="geometry">
            <mxPoint x="360" y="660" as="targetPoint" />
          </mxGeometry>
        </mxCell>
        <mxCell id="pPr2H10A3WoljT3qs_36-15" value="Make Booking" style="whiteSpace=wrap;html=1;" parent="1" vertex="1">
          <mxGeometry x="300" y="457" width="120" height="60" as="geometry" />
        </mxCell>
        <mxCell id="pPr2H10A3WoljT3qs_36-17" value="Check booking history" style="whiteSpace=wrap;html=1;" parent="1" vertex="1">
          <mxGeometry x="610" y="367" width="120" height="60" as="geometry" />
        </mxCell>
        <mxCell id="pPr2H10A3WoljT3qs_36-21" value="Cancel booking" style="rhombus;whiteSpace=wrap;html=1;" parent="1" vertex="1">
          <mxGeometry x="490" y="560" width="120" height="80" as="geometry" />
        </mxCell>
        <mxCell id="pPr2H10A3WoljT3qs_36-30" value="" style="edgeStyle=orthogonalEdgeStyle;rounded=0;orthogonalLoop=1;jettySize=auto;html=1;" parent="1" source="pPr2H10A3WoljT3qs_36-27" edge="1">
          <mxGeometry relative="1" as="geometry">
            <mxPoint x="360" y="762" as="targetPoint" />
          </mxGeometry>
        </mxCell>
        <mxCell id="pPr2H10A3WoljT3qs_36-27" value="Transaction&lt;br&gt;Confirmation" style="whiteSpace=wrap;html=1;" parent="1" vertex="1">
          <mxGeometry x="290" y="620" width="140" height="60" as="geometry" />
        </mxCell>
        <mxCell id="pPr2H10A3WoljT3qs_36-29" value="View travel status" style="whiteSpace=wrap;html=1;" parent="1" vertex="1">
          <mxGeometry x="270" y="762" width="180" height="60" as="geometry" />
        </mxCell>
        <mxCell id="pPr2H10A3WoljT3qs_36-39" value="" style="endArrow=none;html=1;rounded=0;entryX=0.5;entryY=1;entryDx=0;entryDy=0;exitX=0.5;exitY=0;exitDx=0;exitDy=0;" parent="1" source="pPr2H10A3WoljT3qs_36-40" target="pPr2H10A3WoljT3qs_36-29" edge="1">
          <mxGeometry width="50" height="50" relative="1" as="geometry">
            <mxPoint x="360" y="1112" as="sourcePoint" />
            <mxPoint x="390" y="922" as="targetPoint" />
          </mxGeometry>
        </mxCell>
        <mxCell id="pPr2H10A3WoljT3qs_36-45" value="" style="edgeStyle=orthogonalEdgeStyle;rounded=0;orthogonalLoop=1;jettySize=auto;html=1;" parent="1" source="pPr2H10A3WoljT3qs_36-40" target="pPr2H10A3WoljT3qs_36-44" edge="1">
          <mxGeometry relative="1" as="geometry" />
        </mxCell>
        <mxCell id="pPr2H10A3WoljT3qs_36-40" value="Log out" style="rounded=1;whiteSpace=wrap;html=1;" parent="1" vertex="1">
          <mxGeometry x="300" y="860" width="120" height="60" as="geometry" />
        </mxCell>
        <mxCell id="pPr2H10A3WoljT3qs_36-42" value="" style="endArrow=classic;html=1;rounded=0;exitX=0.5;exitY=1;exitDx=0;exitDy=0;entryX=1;entryY=0;entryDx=0;entryDy=0;" parent="1" source="pPr2H10A3WoljT3qs_36-21" target="pPr2H10A3WoljT3qs_36-40" edge="1">
          <mxGeometry width="50" height="50" relative="1" as="geometry">
            <mxPoint x="540" y="770" as="sourcePoint" />
            <mxPoint x="360" y="1112" as="targetPoint" />
            <Array as="points">
              <mxPoint x="550" y="810" />
            </Array>
          </mxGeometry>
        </mxCell>
        <mxCell id="pPr2H10A3WoljT3qs_36-43" value="" style="endArrow=classic;html=1;rounded=0;exitX=0.5;exitY=1;exitDx=0;exitDy=0;entryX=1;entryY=0.5;entryDx=0;entryDy=0;" parent="1" source="pPr2H10A3WoljT3qs_36-17" target="pPr2H10A3WoljT3qs_36-40" edge="1">
          <mxGeometry width="50" height="50" relative="1" as="geometry">
            <mxPoint x="700" y="322" as="sourcePoint" />
            <mxPoint x="450" y="900" as="targetPoint" />
            <Array as="points">
              <mxPoint x="670" y="892" />
            </Array>
          </mxGeometry>
        </mxCell>
        <mxCell id="pPr2H10A3WoljT3qs_36-44" value="End" style="ellipse;whiteSpace=wrap;html=1;rounded=1;" parent="1" vertex="1">
          <mxGeometry x="285" y="960" width="150" height="80" as="geometry" />
        </mxCell>
        <mxCell id="kPgAx1ZnFO4lZo-58N2I-1" value="" style="edgeStyle=orthogonalEdgeStyle;rounded=0;orthogonalLoop=1;jettySize=auto;html=1;exitX=0;exitY=0.5;exitDx=0;exitDy=0;" edge="1" parent="1" source="pPr2H10A3WoljT3qs_36-13" target="pPr2H10A3WoljT3qs_36-19">
          <mxGeometry relative="1" as="geometry">
            <mxPoint x="360" y="627" as="targetPoint" />
            <mxPoint x="360" y="517" as="sourcePoint" />
          </mxGeometry>
        </mxCell>
        <mxCell id="pPr2H10A3WoljT3qs_36-19" value="View bookings" style="whiteSpace=wrap;html=1;" parent="1" vertex="1">
          <mxGeometry x="120" y="457" width="120" height="60" as="geometry" />
        </mxCell>
        <mxCell id="kPgAx1ZnFO4lZo-58N2I-8" value="View booking info" style="whiteSpace=wrap;html=1;" vertex="1" parent="1">
          <mxGeometry x="120" y="612" width="120" height="60" as="geometry" />
        </mxCell>
        <mxCell id="kPgAx1ZnFO4lZo-58N2I-9" value="" style="endArrow=classic;html=1;rounded=0;exitX=0.5;exitY=1;exitDx=0;exitDy=0;entryX=0.5;entryY=0;entryDx=0;entryDy=0;" edge="1" parent="1" source="pPr2H10A3WoljT3qs_36-19" target="kPgAx1ZnFO4lZo-58N2I-8">
          <mxGeometry width="50" height="50" relative="1" as="geometry">
            <mxPoint x="480" y="640" as="sourcePoint" />
            <mxPoint x="530" y="590" as="targetPoint" />
          </mxGeometry>
        </mxCell>
        <mxCell id="kPgAx1ZnFO4lZo-58N2I-14" value="" style="endArrow=classic;html=1;rounded=0;exitX=1;exitY=1;exitDx=0;exitDy=0;entryX=0.263;entryY=0.169;entryDx=0;entryDy=0;entryPerimeter=0;" edge="1" parent="1" source="pPr2H10A3WoljT3qs_36-15" target="pPr2H10A3WoljT3qs_36-21">
          <mxGeometry width="50" height="50" relative="1" as="geometry">
            <mxPoint x="480" y="640" as="sourcePoint" />
            <mxPoint x="530" y="590" as="targetPoint" />
          </mxGeometry>
        </mxCell>
      </root>
    </mxGraphModel>
  </diagram>
</mxfile>
